Coordinates
version=1
nRows=7
nColumns=63
inDegrees=yes

Units are S.I. units (second, meters, Newtons, ...)
If the header above contains a line with 'inDegrees', this indicates whether rotational values are in degrees (yes) or radians (no).

endheader
time	pelvis_tilt	pelvis_list	pelvis_rotation	pelvis_tx	pelvis_ty	pelvis_tz	hip_flexion_r	hip_adduction_r	hip_rotation_r	knee_angle_r	knee_angle_r_beta	ankle_angle_r	subtalar_angle_r	mtp_angle_r	hip_flexion_l	hip_adduction_l	hip_rotation_l	knee_angle_l	knee_angle_l_beta	ankle_angle_l	subtalar_angle_l	mtp_angle_l	L5_S1_Flex_Ext	L5_S1_Lat_Bending	L5_S1_axial_rotation	L4_L5_Flex_Ext	L4_L5_Lat_Bending	L4_L5_axial_rotation	L3_L4_Flex_Ext	L3_L4_Lat_Bending	L3_L4_axial_rotation	L2_L3_Flex_Ext	L2_L3_Lat_Bending	L2_L3_axial_rotation	L1_L2_Flex_Ext	L1_L2_Lat_Bending	L1_L2_axial_rotation	L1_T12_Flex_Ext	L1_T12_Lat_Bending	L1_T12_axial_rotation	Abs_r3	Abs_r2	Abs_r1	Abs_t1	Abs_t2	neck_flexion	neck_bending	neck_rotation	arm_flex_r	arm_add_r	arm_rot_r	elbow_flex_r	pro_sup_r	wrist_flex_r	wrist_dev_r	arm_flex_l	arm_add_l	arm_rot_l	elbow_flex_l	pro_sup_l	wrist_flex_l	wrist_dev_l
     14.26666667	      2.79639986	      0.55493435	    179.85934176	      0.13621099	      0.88534463	      0.69106985	     11.62566969	     -5.15561863	     -3.33775649	     69.21694859	      1.20806365	      1.33189522	    -14.63723969	      0.00000000	     19.65412232	      1.66938662	     -7.24253368	     23.69669544	      0.41358536	     14.79220482	    -12.56913474	      0.00000000	     -0.00263373	     -0.01367445	      0.07940748	     -0.00489110	     -0.01818702	      0.08437044	     -0.00432696	     -0.03324806	      0.08437044	     -0.00301009	     -0.03324806	      0.06948154	     -0.00244568	     -0.02788494	      0.06451858	     -0.00150491	     -0.02118172	      0.05955561	     -0.01881248	     -0.15468812	      0.44164057	      0.00000000	      0.00000000	     -0.00000000	      0.00000000	      0.00000000	     -2.78656931	    -10.95676900	      9.43958069	     31.49172113	     45.61489747	      0.00000000	      5.00000014	    -12.66554070	     -7.98679262	     -1.63458332	     21.10189338	     43.18001045	      0.00000000	      5.00000014
     14.30000000	      2.83594280	      0.28165578	    181.19080544	      0.10107587	      0.88939394	      0.69471113	     16.55966799	     -6.09018869	     -3.73808453	     71.99065790	      1.25647401	      3.78812649	    -12.41343377	      0.00000000	     16.42560871	      2.55867855	     -5.42332641	     22.15720860	      0.38671624	     15.92096404	    -11.82831090	      0.00000000	     -0.00235276	     -0.06477281	     -0.27087280	     -0.00436931	     -0.08614783	     -0.28780235	     -0.00386535	     -0.15748860	     -0.28780235	     -0.00268897	     -0.15748860	     -0.23701370	     -0.00218477	     -0.13208471	     -0.22008415	     -0.00134437	     -0.10033308	     -0.20315460	     -0.01680552	     -0.73272295	     -1.50651324	      0.00000000	      0.00000000	     -0.00000000	      0.00000000	      0.00000000	     -5.07424651	    -10.42561983	     10.18427751	     29.84059689	     45.87351280	      0.00000000	      5.00000014	    -10.13360918	     -8.63644372	     -2.09427120	     21.42860301	     43.09653753	      0.00000000	      5.00000014
     14.33333333	      3.17942310	      0.16875953	    182.68947801	      0.06882281	      0.89251610	      0.69819983	     21.68287117	     -7.10434417	     -4.93044655	     72.14754414	      1.25921219	      7.55848514	     -9.54846273	      0.00000000	     13.55138788	      3.14406497	     -3.62404542	     20.17729044	      0.35216015	     16.84158826	    -10.73852107	      0.00000000	     -0.00218425	     -0.10074761	     -0.61433801	     -0.00405636	     -0.13399433	     -0.65273414	     -0.00358850	     -0.24495775	     -0.65273414	     -0.00249638	     -0.24495775	     -0.53754576	     -0.00202829	     -0.20544453	     -0.49914963	     -0.00124808	     -0.15605805	     -0.46075351	     -0.01560186	     -1.13967716	     -3.41676372	      0.00000000	      0.00000000	     -0.00000000	      0.00000000	      0.00000000	     -7.33561852	    -10.21742573	     11.00279350	     28.61640340	     46.12504732	      0.00000000	      5.00000014	     -7.16386866	     -9.52996305	     -2.32945917	     22.54122732	     43.10234802	      0.00000000	      5.00000014
     14.36666667	      3.67749405	      0.21533418	    184.33182759	      0.03818337	      0.89436668	      0.70188232	     26.41725292	     -8.09498194	     -6.75561713	     69.43355289	      1.21184411	     10.84916509	     -7.28135974	      0.00000000	     10.87325321	      3.40697163	     -2.35232587	     17.89388501	      0.31230721	     17.79939960	     -8.99440314	      0.00000000	     -0.00128958	     -0.11559507	     -0.94612628	     -0.00239488	     -0.15374144	     -1.00525918	     -0.00211865	     -0.28105785	     -1.00525918	     -0.00147386	     -0.28105785	     -0.82786050	     -0.00119750	     -0.23572146	     -0.76872760	     -0.00073687	     -0.17905676	     -0.70959471	     -0.00921135	     -1.30763453	     -5.26207055	      0.00000000	      0.00000000	     -0.00000000	      0.00000000	      0.00000000	     -9.65036692	    -10.28834322	     11.44953532	     27.93212556	     46.23462306	      0.00000000	      5.00000014	     -3.92116285	    -10.51516241	     -1.96724520	     24.08518949	     43.26761185	      0.00000000	      5.00000014
     14.40000000	      4.21620300	      0.40393573	    186.17393656	      0.00795601	      0.89443065	      0.70562237	     30.25010559	     -9.08085458	     -9.28634610	     64.09303325	      1.11863446	     13.02085886	     -5.44479136	      0.00000000	      8.78222728	      2.91426051	     -4.72579405	     16.64637000	      0.29053397	     20.33733265	     -2.24508078	      0.00000000	     -0.00036635	     -0.10797838	     -1.29071975	     -0.00068035	     -0.14361124	     -1.37138973	     -0.00060188	     -0.26253863	     -1.37138973	     -0.00041870	     -0.26253863	     -1.12937978	     -0.00034020	     -0.22018951	     -1.04870980	     -0.00020933	     -0.16725851	     -0.96803981	     -0.00261682	     -1.22147303	     -7.17859602	      0.00000000	      0.00000000	     -0.00000000	      0.00000000	      0.00000000	    -11.99325181	    -10.39529528	     11.13347066	     27.63507937	     46.05431402	      0.00000000	      5.00000014	     -0.52027262	    -12.37565848	      3.01006775	     25.77481532	     44.78107231	      0.00000000	      5.00000014
     14.43333333	      4.70317494	      0.63255250	    187.73647268	     -0.02313807	      0.89292191	      0.70954461	     32.95592424	     -9.62397198	    -11.80955838	     56.50465677	      0.98619230	     13.37790371	     -5.18714198	      0.00000000	      6.48541795	      2.81735828	     -4.60617450	     15.10176898	      0.26357559	     21.88214445	     -0.10420871	      0.00000000	     -0.00035991	     -0.08695807	     -1.59449068	     -0.00066839	     -0.11565424	     -1.69414635	     -0.00059130	     -0.21142986	     -1.69414635	     -0.00041134	     -0.21142986	     -1.39517935	     -0.00033421	     -0.17732490	     -1.29552368	     -0.00020565	     -0.13469806	     -1.19586801	     -0.00257081	     -0.98368712	     -8.86807883	      0.00000000	      0.00000000	     -0.00000000	      0.00000000	      0.00000000	    -14.23898507	    -10.69759064	     10.80977860	     27.65506413	     45.94283700	      0.00000000	      5.00000014	      2.25012107	    -13.23475119	      3.47147067	     28.31329325	     44.94830053	      0.00000000	      5.00000014
     14.46666667	      5.22194443	      0.99195475	    189.63271349	     -0.05470694	      0.88970727	      0.71282203	     34.40155298	    -10.09827617	    -15.58159358	     47.32153371	      0.82591657	     12.95296557	     -4.45599522	      0.00000000	      5.38145121	      1.05832700	    -13.66219191	     16.52278974	      0.28837708	     26.04656707	     14.33323627	      0.00000000	     -0.00093727	     -0.05325924	     -1.95042388	     -0.00174060	     -0.07083479	     -2.07232537	     -0.00153984	     -0.12949452	     -2.07232537	     -0.00107120	     -0.12949452	     -1.70662089	     -0.00087035	     -0.10860625	     -1.58471940	     -0.00053555	     -0.08249857	     -1.46281791	     -0.00669481	     -0.60247920	    -10.84767249	      0.00000000	      0.00000000	     -0.00000000	      0.00000000	      0.00000000	    -16.56208384	    -10.26719488	      7.49747091	     28.08862711	     44.70947624	      0.00000000	      5.00000014	      5.08217384	    -14.79441063	      7.00217231	     30.66174031	     46.16501204	      0.00000000	      5.00000014
